# xmcd
#
# Track frame offsets:
# 150
# 18782
# 40224
# 54387
# 70216
# 88323
# 105309
# 116880
# 133893
# 146314
# 155948
# 176280
# 194892
# 210594
# 221969
# 239029
# 257854
# 275353
# 293263
# 310205
#
# Disc length: 4550 seconds
#
#
# Revision: 0
# Processed by: cddbd v1.5.1PL2 Copyright (c) Steve Scherf et al.
# Submitted via: FreeRIP 2.944 
#
DISCID=3711c414
DTITLE=Vários - Preferidas dos Caminhoneiros - 2005
DYEAR=2005
DGENRE=Musical
TTITLE0=01-CAMINHAO NA ESTRADA - DI PAULO E PAULINHO
TTITLE1=02-120,150,200 KM POR HORA - LEONARDO
TTITLE2=03-CAMINHONEIRO DO AMOR - JOAO PAULO E DANIEL
TTITLE3=04-MINHA HISTORIA É A SUA - SULA MIRANDA
TTITLE4=05-DEIXA A ESTRADA ME LEVAR - PEDRO E THIAGO
TTITLE5=06-NO FIM DESSA ESTRADA - RIONEGRO E SOLIMOES
TTITLE6=07-CARGA PESADA - JOAQUIM E MANUEL
TTITLE7=08-FRETE - CHITAOZINHO E XORORO
TTITLE8=09-VEM CÁ CAMINHONEIRO - AS MARCIANAS
TTITLE9=10-ESTRADA DA VIDA - MILIONÁRIO E JOSÉ RICO
TTITLE10=11-NA CURVA DA ESTRADA - LEONARDO
TTITLE11=12-DISTANCIA DANADA - SULA MIRANDA
TTITLE12=13-A LOIRA DO CARRO BRANCO - JOAO PAULO E DANIEL
TTITLE13=14-MEU CAMINHAO É MINHA VIDA - JOAQUIM E MANUEL
TTITLE14=15-TODAS AS MANHAS - SERGIO REIS
TTITLE15=16-CAMINHONEIRO DO AMOR - SULA MIRANDA
TTITLE16=17-CAWBOY DO ASFALTO - CHITAOZINHO E XORORO
TTITLE17=18-VIAJANTE SOLITARIO - CESAR E PAULINHO
TTITLE18=19-RUMO A GOIANIA - LEANDRO E LEONARDO
TTITLE19=20-CAMINHONEIRO - ROBERTO CARLOS
EXTD=
EXTT0=
EXTT1=
EXTT2=
EXTT3=
EXTT4=
EXTT5=
EXTT6=
EXTT7=
EXTT8=
EXTT9=
EXTT10=
EXTT11=
EXTT12=
EXTT13=
EXTT14=
EXTT15=
EXTT16=
EXTT17=
EXTT18=
EXTT19=
PLAYORDER=
